<?xml version="1.0" encoding="UTF-8"?>
<svg id="Capa_1" data-name="Capa 1" xmlns="http://www.w3.org/2000/svg" viewBox="0 0 200 200">
  <defs>
    <style>
      .cls-1 {
        fill: #5e3b7f;
      }

      .cls-1, .cls-2 {
        stroke-width: 0px;
      }

      .cls-2 {
        fill: #fff;
      }
    </style>
  </defs>
  <rect class="cls-2" x="43.86" y="27.86" width="106.86" height="128.57"/>
  <path class="cls-1" d="m79.66,89.06v-30.84h22.25c12.16,0,19.27,5.71,19.27,15.46s-7.55,15.38-22.05,15.38h-19.47Zm0,47.03h23.72c14.8,0,22.63-6,22.63-17.21s-8.12-16.85-23.57-16.85h-22.78s0,34.06,0,34.06Z"/>
  <path class="cls-1" d="m50,0C22.39,0,0,22.39,0,50v100c0,27.61,22.39,50,50,50h100c27.61,0,50-22.39,50-50V50C200,22.39,177.61,0,150,0,150,0,50,0,50,0Zm13.25,150V44.31h42.49c19.84,0,31.79,10.11,31.79,26.37,0,11.05-8.12,20.94-18.54,22.7v1.25c14.29,1.46,23.8,11.64,23.8,25.41,0,18.6-13.55,29.95-36.1,29.95h-43.44Z"/>
</svg>