<?xml version="1.0" encoding="UTF-8"?>
<svg id="Capa_1" data-name="Capa 1" xmlns="http://www.w3.org/2000/svg" xmlns:xlink="http://www.w3.org/1999/xlink" viewBox="0 0 200 200">
  <defs>
    <style>
      .cls-1 {
        fill: #ffa000;
      }

      .cls-1, .cls-2, .cls-3, .cls-4, .cls-5, .cls-6, .cls-7 {
        stroke-width: 0px;
      }

      .cls-2 {
        fill: #a52714;
        opacity: .2;
      }

      .cls-2, .cls-4 {
        isolation: isolate;
      }

      .cls-3 {
        fill: rgba(255, 255, 255, .2);
      }

      .cls-4 {
        fill: #fff;
        opacity: .54;
      }

      .cls-5 {
        fill: #f57c00;
      }

      .cls-6 {
        fill: url(#Degradado_sin_nombre_5);
      }

      .cls-7 {
        fill: #ffca28;
      }
    </style>
    <linearGradient id="Degradado_sin_nombre_5" data-name="Degradado sin nombre 5" x1="-1590.68" y1="200.75" x2="-1589.89" y2="200.17" gradientTransform="translate(151176 26337.97) scale(95 -131)" gradientUnits="userSpaceOnUse">
      <stop offset="0" stop-color="#fff" stop-opacity=".1"/>
      <stop offset=".14" stop-color="#fff" stop-opacity=".08"/>
      <stop offset=".61" stop-color="#fff" stop-opacity=".02"/>
      <stop offset="1" stop-color="#fff" stop-opacity="0"/>
    </linearGradient>
  </defs>
  <path class="cls-4" d="m5.21,175.91H0v-40.21h23.65v4.94H5.21v13.2h16.63v4.83H5.21v17.24h0Zm28.23-34.42c-1.24,1.24-3.19,1.43-4.65.46s-2.04-2.83-1.36-4.44,2.4-2.53,4.12-2.19,2.97,1.84,2.97,3.59c.02.97-.37,1.91-1.08,2.58h0,0Zm0,34.42h-5.21v-27.52h5.21v27.52h0Zm11.43,0h-5.21v-27.52h4.98v4.49h.23c.6-1.58,1.76-2.9,3.25-3.71,1.43-.91,3.08-1.42,4.78-1.46,1.33-.04,2.66.19,3.9.68l-1.98,4.83c-.89-.29-1.83-.43-2.77-.39-1.91,0-3.73.82-5.01,2.22-1.45,1.48-2.18,3.42-2.18,5.81v15.05s0,0,0,0Zm26.2.88c-4.19,0-7.59-1.38-10.21-4.15-2.62-2.77-3.93-6.26-3.93-10.48-.08-3.8,1.29-7.48,3.82-10.33,2.43-2.83,6.01-4.42,9.76-4.33,4.11,0,7.4,1.33,9.87,3.99,2.47,2.66,3.71,6.22,3.7,10.67l-.06.96h-21.9c.15,2.77,1.08,4.96,2.8,6.58,1.61,1.57,3.77,2.43,6.02,2.41,3.73,0,6.26-1.57,7.58-4.72l4.64,1.91c-.94,2.18-2.49,4.04-4.47,5.36-2.08,1.42-4.62,2.13-7.63,2.13h0Zm7.47-17.99c-.11-1.57-.84-3.07-2.18-4.49s-3.33-2.12-5.98-2.09c-1.84-.03-3.62.61-5.01,1.8-1.46,1.27-2.47,2.95-2.91,4.83l16.08-.04h0Zm24.35,17.99c-1.97.04-3.92-.41-5.67-1.32-1.54-.77-2.83-1.93-3.76-3.37h-.23v3.81h-4.98v-40.21h5.21v12.69l-.23,3.82h.23c.93-1.44,2.23-2.6,3.76-3.37,1.75-.91,3.69-1.38,5.67-1.35,3.58,0,6.68,1.4,9.28,4.21s3.91,6.29,3.9,10.45c0,4.16-1.3,7.64-3.9,10.45s-5.7,4.2-9.28,4.19h0Zm-.85-4.72c2.37.02,4.64-.97,6.22-2.72,1.74-1.82,2.6-4.22,2.6-7.22s-.87-5.4-2.6-7.22c-1.6-1.73-3.86-2.72-6.23-2.72s-4.63.97-6.24,2.7c-1.71,1.8-2.57,4.21-2.57,7.24s.87,5.45,2.6,7.27c1.6,1.74,3.87,2.73,6.24,2.7l-.02-.02h0Zm27.29,4.72c-2.95,0-5.41-.84-7.38-2.53-1.97-1.68-2.96-3.91-2.97-6.68,0-3,1.17-5.34,3.51-7.05s5.22-2.55,8.65-2.55c3.06,0,5.56.56,7.51,1.68v-.79c.07-1.85-.7-3.63-2.09-4.86-1.43-1.22-3.26-1.86-5.14-1.8-1.44-.02-2.86.35-4.1,1.07-1.17.64-2.06,1.68-2.52,2.92l-4.75-2.02c.64-1.65,1.91-3.19,3.8-4.6s4.38-2.11,7.47-2.11c3.54,0,6.48,1.02,8.84,3.07,2.36,2.05,3.53,4.95,3.51,8.7v16.65h-4.99v-3.82h-.23c-2.08,3.13-5.11,4.69-9.11,4.69h0Zm.85-4.72c2.19,0,4.29-.85,5.86-2.36,1.68-1.4,2.65-3.47,2.65-5.64-1.47-1.2-3.68-1.8-6.63-1.8-2.53,0-4.43.54-5.71,1.63-1.2.91-1.9,2.32-1.92,3.82-.02,1.3.65,2.52,1.77,3.2,1.18.79,2.57,1.2,3.99,1.18v-.02h0Zm28.8,4.72c-3.09,0-5.65-.75-7.66-2.25-1.96-1.44-3.49-3.38-4.42-5.62l4.64-1.91c1.47,3.45,3.98,5.17,7.51,5.17,1.4.06,2.79-.32,3.98-1.07.98-.6,1.57-1.67,1.56-2.81,0-1.8-1.26-3.01-3.8-3.65l-5.6-1.35c-1.84-.48-3.56-1.35-5.03-2.55-1.57-1.22-2.45-3.11-2.38-5.08,0-2.43,1.08-4.41,3.25-5.92,2.27-1.55,4.97-2.34,7.72-2.27,2.3-.04,4.56.54,6.56,1.66,1.89,1.06,3.34,2.74,4.13,4.75l-4.52,1.83c-1.02-2.43-3.13-3.65-6.34-3.65-1.36-.05-2.72.29-3.9.96-.97.5-1.58,1.5-1.58,2.58,0,1.57,1.23,2.64,3.68,3.2l5.49,1.29c2.6.58,4.53,1.61,5.77,3.07,1.21,1.37,1.87,3.12,1.87,4.94.02,2.42-1.11,4.71-3.05,6.18-2.04,1.66-4.66,2.48-7.86,2.48h0Zm28,0c-4.19,0-7.59-1.38-10.21-4.15s-3.93-6.27-3.93-10.5c-.08-3.8,1.29-7.48,3.82-10.33,2.43-2.83,6.03-4.41,9.77-4.3,4.12,0,7.42,1.33,9.87,3.99,2.46,2.66,3.69,6.22,3.7,10.67l-.06.96h-21.92c.15,2.77,1.08,4.96,2.8,6.58,1.61,1.57,3.78,2.43,6.04,2.4,3.73,0,6.26-1.57,7.58-4.72l4.64,1.91c-.94,2.18-2.49,4.04-4.47,5.36-2.08,1.43-4.62,2.14-7.64,2.14h0Zm7.47-17.99c-.11-1.57-.84-3.07-2.18-4.49s-3.33-2.12-5.97-2.09c-1.84-.03-3.62.61-5.01,1.8-1.46,1.27-2.47,2.95-2.91,4.83l16.07-.04h0Z"/>
  <g>
    <path class="cls-1" d="m63.89,103.37l12.23-78.25c.15-.96.9-1.72,1.85-1.88s1.91.31,2.37,1.16l12.65,23.59,5.04-9.6c.39-.74,1.16-1.21,2-1.21s1.61.46,2,1.21l34.13,64.98H63.89Z"/>
    <path class="cls-5" d="m106.13,72.89l-13.15-24.91-29.09,55.39,42.25-30.48Z"/>
    <path class="cls-7" d="m136.15,103.37l-9.37-57.96c-.14-.83-.74-1.52-1.54-1.77s-1.68-.04-2.28.55l-59.08,59.18,32.69,18.33c2.05,1.15,4.55,1.15,6.61,0l32.97-18.33h0Z"/>
    <path class="cls-3" d="m126.79,45.41c-.14-.83-.74-1.52-1.54-1.77s-1.68-.04-2.28.55l-11.73,11.76-9.22-17.55c-.39-.74-1.16-1.21-2-1.21s-1.61.46-2,1.21l-5.04,9.6-12.65-23.59c-.46-.86-1.41-1.32-2.37-1.16s-1.7.92-1.85,1.88l-12.22,78.25h-.04l.04.05.32.16,58.74-58.81c.6-.6,1.48-.82,2.29-.56s1.4.94,1.54,1.78l9.29,57.44.09-.06-9.37-57.96h0Zm-62.79,57.85l12.12-77.58c.15-.96.89-1.72,1.85-1.88s1.91.3,2.37,1.16l12.65,23.59,5.04-9.6c.39-.74,1.16-1.21,2-1.21s1.61.46,2,1.21l9.03,17.18-47.06,47.14h0Z"/>
    <path class="cls-2" d="m103.18,121.15c-2.05,1.15-4.55,1.15-6.61,0l-32.61-18.28-.08.5,32.69,18.33c2.05,1.15,4.55,1.15,6.61,0l32.97-18.33-.08-.52-32.89,18.3h0Z"/>
    <path id="b" class="cls-6" d="m126.69,45.43c-.14-.83-.73-1.52-1.53-1.77s-1.68-.04-2.27.55l-11.69,11.75-9.19-17.55c-.39-.74-1.16-1.21-1.99-1.21s-1.6.46-1.99,1.21l-5.02,9.59-12.6-23.58c-.46-.86-1.41-1.32-2.36-1.16s-1.7.92-1.84,1.88l-12.18,78.21,32.57,18.32c2.05,1.15,4.54,1.15,6.58,0l32.86-18.32-9.33-57.93h0Z"/>
  </g>
</svg>