<?xml version="1.0" encoding="UTF-8"?>
<svg id="Capa_1" data-name="Capa 1" xmlns="http://www.w3.org/2000/svg" viewBox="0 0 300 155.35">
  <defs>
    <style>
      .cls-1 {
        fill: orange;
      }

      .cls-1, .cls-2 {
        stroke-width: 0px;
      }

      .cls-2 {
        fill: #5180a1;
      }
    </style>
  </defs>
  <path class="cls-2" d="m76.79,155.35c0-1.61-.02-3.23,0-4.84.01-1.76.14-1.9,1.96-1.9,9.45,0,18.9,0,28.35,0,1.33,0,2.64-.08,3.91-.53,2.31-.82,3.67-3.98,2.66-6.2-.33-.72-.99-.51-1.55-.51-6.36-.01-12.73-.05-19.09,0-3.73.03-7.32-.52-10.69-2.15-3.74-1.82-5.86-4.51-5.68-9.01.25-6.25.11-12.52.05-18.78-.01-1.38.38-1.94,1.81-1.89,2.2.09,4.41.06,6.61.01,1.27-.03,1.71.49,1.7,1.75-.04,6.46-.02,12.91-.02,19.37,0,2.81,1.14,4.08,3.99,4.37,1.46.15,2.93.24,4.39.24,5.63.03,11.26-.02,16.89.03,1.27.01,1.7-.38,1.69-1.67-.05-7.39-.03-14.77-.02-22.16,0-1.92.05-1.96,1.99-1.96,2.2,0,4.41.02,6.61,0,1.01-.02,1.53.29,1.52,1.41-.03,11.59.06,23.19-.08,34.78-.05,4.07-2.92,6.31-6.32,7.92-1.73.82-3.63,1.16-5.44,1.72h-35.26Z"/>
  <path class="cls-2" d="m34.27,133.65c1.74-3.9,3.45-7.73,5.16-11.56,3.11-6.97,6.18-13.95,9.35-20.89,2.34-5.13,6.19-7.08,11.78-6.14,1.5.25,2.97.59,4.39,1.17,2.53,1.04,3.67,2.99,3.68,5.63.03,5.97.02,11.93.02,17.9,0,6.75-.03,13.5.03,20.25.01,1.42-.47,1.9-1.86,1.85-2.15-.08-4.31-.09-6.46,0-1.42.06-1.84-.49-1.84-1.88.04-11.49.03-22.99.02-34.48,0-.52.13-1.06-.23-1.78-1.19,2.62-2.32,5.09-3.42,7.56-3.78,8.43-7.53,16.88-11.34,25.3-1.99,4.39-4.68,5.82-9.54,5.77-4.68-.05-7.45-2.29-9.27-6.48-4.57-10.54-9.35-21-14.05-31.48-.07-.17-.19-.31-.54-.45,0,.51,0,1.01,0,1.52,0,11.35,0,22.69,0,34.04,0,2.33-.01,2.34-2.4,2.34-1.96,0-3.92-.06-5.87.02-1.39.06-1.87-.42-1.86-1.85.05-11.05.03-22.11.03-33.16,0-1.71-.02-3.42.02-5.14.08-2.94,1.53-4.89,4.34-5.76,2.63-.81,5.28-1.45,8.08-.94,3.33.61,5.75,2.38,7.1,5.5,2.73,6.28,5.45,12.56,8.17,18.84,1.92,4.44,3.83,8.89,5.75,13.34.13.3.2.67.77.95Z"/>
  <path class="cls-1" d="m230.79,118.87c0,4.06.01,8.12,0,12.18-.02,3.55-1.37,6.38-4.64,8.05-.98.5-.78.86-.11,1.45,2.55,2.29,5.07,4.6,7.59,6.92.26.24.77.44.52.92-.18.34-.62.21-.95.22-2.99,0-5.97-.02-8.96.01-1.04.01-1.74-.54-2.44-1.17-1.81-1.65-3.63-3.28-5.41-4.95-.77-.71-1.61-1.01-2.67-.92-5.91.46-11.83.39-17.75.32-3.54-.04-6.87-1.01-9.91-2.83-3.29-1.98-4.61-5.1-4.64-8.79-.05-7.63-.07-15.26,0-22.89.05-5.08,2.5-8.29,7.31-10.03,2.8-1.01,5.69-1.53,8.63-1.52,6.7,0,13.41-.31,20.11.2,2.9.22,5.7.92,8.27,2.34,3.28,1.81,5.01,4.59,5.04,8.34.04,4.06,0,8.12,0,12.18Zm-30.46,9.05c.43-.13.61-.22.78-.22,3.28-.01,6.56,0,9.84-.02.7,0,1.21.33,1.69.77,1.81,1.64,3.65,3.26,5.42,4.94.7.67,1.23.63,1.86-.01,1.02-1.04,1.43-2.27,1.42-3.72-.03-7.04,0-14.08-.01-21.12,0-3.42-1.75-5.55-5.16-5.63-6.16-.16-12.33-.18-18.49,0-3.65.11-5.34,2.19-5.34,5.81,0,6.55,0,13.1,0,19.65,0,4.44,2.06,6.55,6.53,6.67,2.3.06,4.6.03,6.9.01.65,0,1.33.16,2.09-.22-2.53-2.33-4.95-4.55-7.51-6.92Z"/>
  <path class="cls-1" d="m159.94,95.74c4.7,0,9.4.03,14.1-.02,1.31-.02,1.91.38,1.81,1.76-.08,1.12-.08,2.25,0,3.37.1,1.36-.48,1.76-1.8,1.75-8.52-.04-17.03-.02-25.55-.03-1.43,0-2.84.15-4.22.47-1.97.46-2.7,1.39-2.78,3.41-.04,1.22-.02,2.44-.01,3.67.03,3.49,1.69,5.22,5.24,5.27,4.45.07,8.91-.04,13.36.06,3.91.09,7.66.9,11.1,2.89,2.93,1.7,4.49,4.11,4.32,7.57-.11,2.15.1,4.3-.15,6.45-.29,2.51-1.55,4.38-3.55,5.82-3.64,2.63-7.82,3.59-12.19,3.63-8.81.09-17.62,0-26.43.05-1.41,0-1.98-.47-1.83-1.87.08-.73,0-1.47.01-2.2.03-3.09-.42-2.97,3.05-2.97,4.94,0,9.89,0,14.83,0,3.18,0,6.36,0,9.54,0,1.08,0,2.15-.06,3.19-.39,2.12-.67,3.2-2.1,3.21-4.32,0-1.27,0-2.54,0-3.81-.01-2.16-.85-3.33-2.96-3.95-1.65-.48-3.36-.65-5.08-.66-3.77-.03-7.54.05-11.31-.05-3.68-.1-7.15-1.07-10.32-2.98-2.77-1.67-4.3-4.04-4.14-7.39.08-1.76-.03-3.52.03-5.28.12-3.45,1.66-6.05,4.71-7.76,3.16-1.77,6.6-2.42,10.16-2.46,4.55-.05,9.1-.01,13.66-.01v-.02Z"/>
  <path class="cls-1" d="m236.84,114.34c0-5.53,0-11.05,0-16.58,0-1.99.03-2.02,2.08-2.02,2.06,0,4.11.07,6.17-.02,1.41-.06,1.87.45,1.86,1.85-.05,9.78-.02,19.56-.02,29.34,0,1.12-.02,2.25.01,3.37.06,2.17.92,3.34,2.96,4.05,1.08.37,2.19.47,3.33.47,8.47,0,16.93.01,25.4.02,2.12,0,2.12.01,2.12,2.13,0,1.08-.07,2.16.02,3.23.1,1.32-.49,1.69-1.72,1.68-5.58-.04-11.16-.01-16.74-.02-4.94,0-9.89.2-14.77-.85-3.25-.7-6.33-1.77-8.58-4.41-1.41-1.67-2.1-3.62-2.1-5.81,0-5.48,0-10.95,0-16.43h-.01Z"/>
  <path class="cls-1" d="m292.59,142.2c-4.21,0-7.45-3.25-7.41-7.43.04-4.06,3.34-7.34,7.4-7.35,4.06,0,7.37,3.26,7.42,7.33.05,4.16-3.21,7.44-7.41,7.44Zm3.65-3.26c1.71-1.49,2.31-3.96,1.49-6.13-1.01-2.66-3.45-4.01-6.35-3.49-2.46.44-4.18,2.67-4.24,5.41-.06,2.41.93,4.27,3.09,5.2,1.95.84,4.01.9,5.74-.73.09-.09.18-.17.27-.26Z"/>
  <g>
    <path class="cls-2" d="m237.01,88.59c-1.09-.05-1.58-.35-1.93-.72-3.47-3.58-7.7-6.34-10.96-10.17-2.04-2.39-3.43-5.1-4.8-7.86-.23-.46-.34-1.02-.96-1.39-.57,1.91-.74,3.84-1.05,5.74-.11.67-.21,1.36-.41,2.01-1.01,3.3-4.21,4.48-7.1,2.58-2.43-1.6-3.83-4.05-4.9-6.64-2.97-7.18-3.15-14.55-1.18-22,.56-2.12.78-4.34,1.78-6.34.26-.53-.02-.98-.35-1.33-3.21-3.4-4.89-7.63-6.47-11.9-.9-2.43-1.83-4.85-2.43-7.38-.38-1.6-1.35-2.92-2.31-4.22-1.57-2.12-3.21-4.2-4.75-6.34-1.43-1.97-2.6-4.11-2.39-6.63.34-4.18,3.65-6.57,8-5.89,4.46.7,8.47,2.57,11.95,5.31,1.83,1.44,3.67,2.08,5.86,2.19,5.14.24,9.85,1.77,14.27,4.42,11.53,6.9,20.84,16,27.59,27.64,2.02,3.48,3.07,7.4,4.81,11.02,2.34,4.84,4.65,9.7,6.96,14.56.67,1.4,1.69,2.28,3.18,2.82,8.21,2.94,15.04,8.09,21.51,13.76,1.23,1.08,2.13,2.55,3.16,3.85.68.85.3,1.3-.6,1.59-2.39.77-4.83,1.28-7.32,1.48-2.42.19-4.66,1.1-7.02,1.53-.91.17-.65.67-.29,1.15.95,1.28,2.23,2.19,3.59,2.98,3.87,2.25,7.61,4.7,10.48,8.18,1.73,2.09,4.14,3.66,5.05,6.39.06.17.1.35.16.54-.67.22-.95-.29-1.28-.58-3.79-3.32-8.05-5.83-12.62-7.94-4.16-1.92-7.9-4.51-10.67-8.29-.64-.88-1.13-1.83-1.56-2.81-.6-1.36-.39-1.89,1.03-2.45,4.33-1.69,8.78-2.73,13.45-2.59.15,0,.3.02.44,0,.65-.1,1.66.35,1.89-.28.27-.74-.7-1.19-1.27-1.58-3.59-2.47-7.14-5-10.84-7.29-2.54-1.58-5.45-2.47-8.34-3.18-3.39-.83-5.6-2.79-7.01-5.88-3.22-7.02-6.71-13.91-9.6-21.09-2.18-5.4-5.52-10.13-9.25-14.56-6.6-7.83-14.49-13.95-24.04-17.84-2.24-.91-4.57-1.06-6.9-1.21-2.83-.18-5.29-.76-7.62-2.71-2.84-2.38-6.37-3.8-9.99-4.79-1.04-.28-2.07-.31-2.85.59-.77.89-.6,1.9-.24,2.91.49,1.36,1.25,2.56,2.18,3.63,4.27,4.93,7.24,10.53,8.87,16.85.66,2.56,1.64,5.02,2.94,7.34.79,1.41,1.63,2.8,2.85,3.89,1.7,1.52,2.01,3.35,1.36,5.47-.78,2.57-1.98,5-2.43,7.68-1.06,6.41-.72,12.66,1.91,18.69.49,1.13,1.06,2.21,2.01,3.03.37.31.77.71,1.29.52.54-.2.54-.78.58-1.25.2-2.29.53-4.56.92-6.83.52-3.08,2.25-5.48,4.19-7.78.76-.9,1.07-.14,1.31.45.59,1.45,1.06,2.95,1.7,4.37,3.34,7.49,7.34,14.58,12.6,20.93,1.05,1.27,2.32,2.34,3.87,3.68Z"/>
    <path class="cls-2" d="m211.53,18.8c1.64.25,2.74,1.41,3.43,3,.62,1.41.12,2.67-.76,3.79-.59.75-1.08.5-1.38-.27-.67-1.75-1.67-3.27-2.89-4.68-1.06-1.23-.91-1.51.68-1.74.24-.04.48-.05.92-.09Z"/>
  </g>
  <path class="cls-1" d="m295.98,139.2c-1.52.25-1.95-.95-2.6-1.9-.44-.65-.61-1.9-1.56-1.67-1.03.24-.41,1.42-.55,2.17-.11.57-.02,1.27-.85,1.29-.93.02-.91-.72-.91-1.36-.02-1.9.01-3.8-.01-5.7-.01-.96.35-1.46,1.38-1.41,1.02.05,2.05,0,3.07.06,1.08.07,1.84.63,2.08,1.73.23,1.09.05,2.14-1,2.66-.96.47-.74.9-.28,1.55.53.76,1,1.55,1.5,2.33-.09.09-.18.17-.27.26Z"/>
</svg>