<?xml version="1.0" encoding="UTF-8"?>
<svg id="Capa_1" data-name="Capa 1" xmlns="http://www.w3.org/2000/svg" xmlns:xlink="http://www.w3.org/1999/xlink" viewBox="0 0 200 200">
  <defs>
    <style>
      .cls-1, .cls-2 {
        fill: #689f63;
      }

      .cls-1, .cls-2, .cls-3, .cls-4, .cls-5, .cls-6, .cls-7 {
        stroke-width: 0px;
      }

      .cls-1, .cls-6 {
        fill-rule: evenodd;
      }

      .cls-3 {
        fill: url(#Degradado_sin_nombre_3);
      }

      .cls-8 {
        clip-path: url(#clippath-2);
      }

      .cls-4 {
        fill: none;
      }

      .cls-9 {
        clip-path: url(#clippath-1);
      }

      .cls-5 {
        fill: url(#Degradado_sin_nombre_4);
      }

      .cls-6 {
        fill: #fff;
      }

      .cls-10 {
        clip-path: url(#clippath);
      }

      .cls-7 {
        fill: url(#Degradado_sin_nombre_2);
      }
    </style>
    <clipPath id="clippath">
      <path class="cls-4" d="m72.66,67.05l-19.05,10.99c-.71.41-1.15,1.17-1.15,1.99v22c0,.82.44,1.58,1.15,1.99l19.05,11c.71.41,1.59.41,2.3,0l19.05-11c.71-.41,1.15-1.17,1.15-1.99v-22c0-.82-.44-1.58-1.15-1.99l-19.04-10.99c-.36-.2-.76-.31-1.15-.31s-.8.1-1.15.31"/>
    </clipPath>
    <linearGradient id="Degradado_sin_nombre_4" data-name="Degradado sin nombre 4" x1="-1388.91" y1="210.41" x2="-1388.37" y2="210.41" gradientTransform="translate(-92189.12 133186.13) rotate(116.11) scale(115.31 -115.31)" gradientUnits="userSpaceOnUse">
      <stop offset=".3" stop-color="#3e863d"/>
      <stop offset=".5" stop-color="#55934f"/>
      <stop offset=".8" stop-color="#5aad45"/>
    </linearGradient>
    <clipPath id="clippath-1">
      <path class="cls-4" d="m52.94,103.44c.18.24.41.44.68.59l16.34,9.44,2.72,1.56c.41.24.87.33,1.33.3.15-.01.3-.04.45-.08l20.09-36.78c-.15-.17-.33-.31-.54-.42l-12.47-7.2-6.59-3.79c-.19-.11-.39-.19-.6-.24l-21.41,36.63Z"/>
    </clipPath>
    <linearGradient id="Degradado_sin_nombre_2" data-name="Degradado sin nombre 2" x1="-1378.12" y1="197.14" x2="-1377.77" y2="197.14" gradientTransform="translate(217046.41 -116825.66) rotate(-36.46) scale(177.06 -177.06)" gradientUnits="userSpaceOnUse">
      <stop offset=".57" stop-color="#3e863d"/>
      <stop offset=".72" stop-color="#619857"/>
      <stop offset="1" stop-color="#76ac64"/>
    </linearGradient>
    <clipPath id="clippath-2">
      <path class="cls-4" d="m73.59,66.76c-.32.03-.63.13-.92.29l-18.99,10.96,20.48,37.3c.28-.04.57-.14.82-.28l19.05-11c.59-.34.99-.92,1.11-1.57l-20.88-35.67c-.15-.03-.31-.05-.47-.05-.06,0-.13,0-.19,0"/>
    </clipPath>
    <linearGradient id="Degradado_sin_nombre_3" data-name="Degradado sin nombre 3" x1="-1373.97" y1="201.49" x2="-1373.65" y2="201.49" gradientTransform="translate(178516.85 26262.89) scale(129.89 -129.89)" gradientUnits="userSpaceOnUse">
      <stop offset=".16" stop-color="#6bbf47"/>
      <stop offset=".38" stop-color="#79b461"/>
      <stop offset=".47" stop-color="#75ac64"/>
      <stop offset=".7" stop-color="#659e5a"/>
      <stop offset=".9" stop-color="#3e863d"/>
    </linearGradient>
  </defs>
  <path class="cls-2" d="m98.85,161.25c-.66,0-1.32-.17-1.89-.51l-6.03-3.57c-.9-.5-.46-.68-.16-.78,1.2-.42,1.44-.52,2.73-1.24.13-.08.31-.05.45.03l4.63,2.75c.17.09.4.09.56,0l18.06-10.43c.17-.09.28-.29.28-.49v-20.84c0-.21-.11-.39-.28-.5l-18.05-10.42c-.17-.1-.39-.1-.56,0l-18.05,10.42c-.17.1-.29.29-.29.49v20.84c0,.2.11.39.28.48l4.95,2.86c2.69,1.34,4.33-.24,4.33-1.83v-20.57c0-.29.23-.52.52-.52h2.29c.28,0,.52.23.52.52v20.58c0,3.58-1.95,5.64-5.35,5.64-1.04,0-1.87,0-4.16-1.13l-4.74-2.73c-1.17-.68-1.89-1.94-1.89-3.3v-20.84c0-1.36.72-2.62,1.89-3.29l18.08-10.43c1.14-.65,2.66-.65,3.8,0l18.06,10.43c1.17.67,1.89,1.94,1.89,3.29v20.84c0,1.35-.73,2.61-1.89,3.29l-18.06,10.43c-.58.33-1.23.51-1.9.51"/>
  <path class="cls-2" d="m104.43,146.88c-7.9,0-9.56-3.63-9.56-6.67,0-.29.23-.52.52-.52h2.33c.26,0,.47.19.52.44.35,2.38,1.4,3.58,6.18,3.58,3.81,0,5.43-.86,5.43-2.88,0-1.16-.46-2.03-6.37-2.6-4.95-.49-8-1.58-8-5.53,0-3.64,3.07-5.81,8.22-5.81,5.78,0,8.65,2.01,9.01,6.32.01.15-.04.29-.14.4-.1.1-.24.17-.38.17h-2.35c-.24,0-.46-.17-.51-.41-.57-2.5-1.93-3.3-5.64-3.3-4.15,0-4.64,1.45-4.64,2.53,0,1.32.57,1.7,6.18,2.44,5.55.74,8.19,1.78,8.19,5.68s-3.28,6.19-9.01,6.19m22-22.1h.61c.5,0,.59-.35.59-.55,0-.53-.37-.53-.57-.53h-.62v1.09Zm-.74-1.71h1.34c.46,0,1.37,0,1.37,1.03,0,.72-.46.87-.74.96.54.04.57.39.65.89.04.31.09.85.2,1.03h-.83c-.02-.18-.15-1.18-.15-1.23-.05-.22-.13-.33-.41-.33h-.68v1.56h-.76v-3.91Zm-1.61,1.94c0,1.62,1.31,2.93,2.91,2.93s2.93-1.34,2.93-2.93-1.32-2.91-2.93-2.91-2.91,1.27-2.91,2.91m6.4.01c0,1.92-1.57,3.48-3.48,3.48s-3.48-1.55-3.48-3.48,1.62-3.48,3.48-3.48,3.48,1.51,3.48,3.48"/>
  <path class="cls-6" d="m42.92,79.69c0-.83-.44-1.6-1.16-2.01l-19.15-11.02c-.32-.19-.69-.29-1.05-.3h-.2c-.37.01-.73.11-1.06.3L1.16,77.68c-.71.42-1.16,1.18-1.16,2.01l.04,29.68c0,.41.21.8.57,1,.35.22.8.22,1.15,0l11.38-6.52c.72-.43,1.16-1.18,1.16-2.01v-13.86c0-.83.44-1.59,1.16-2l4.85-2.79c.36-.21.76-.31,1.16-.31s.8.1,1.15.31l4.84,2.79c.72.41,1.16,1.18,1.16,2v13.86c0,.82.44,1.58,1.16,2.01l11.38,6.51c.36.21.8.21,1.16,0,.35-.2.57-.59.57-1l.04-29.67Zm90.36,15.45c0,.21-.11.4-.29.5l-6.58,3.79c-.18.1-.4.1-.58,0l-6.58-3.79c-.18-.1-.29-.29-.29-.5v-7.59c0-.21.11-.4.28-.5l6.57-3.8c.18-.1.4-.1.58,0l6.58,3.8c.18.1.29.29.29.5v7.59Zm1.78-56.24c-.36-.2-.8-.19-1.15.01-.35.21-.57.59-.57,1v29.39c0,.29-.15.56-.4.7-.25.14-.56.14-.81,0l-4.8-2.76c-.71-.41-1.59-.41-2.31,0l-19.16,11.06c-.72.41-1.16,1.18-1.16,2v22.12c0,.83.44,1.59,1.16,2l19.16,11.06c.72.41,1.6.41,2.31,0l19.16-11.07c.71-.42,1.16-1.18,1.16-2v-55.12c0-.84-.46-1.61-1.19-2.02l-11.4-6.36Zm63.79,48.45c.71-.41,1.15-1.18,1.15-2v-5.36c0-.82-.44-1.59-1.15-2l-19.03-11.05c-.72-.42-1.6-.42-2.32,0l-19.15,11.05c-.72.42-1.16,1.18-1.16,2v22.11c0,.83.45,1.6,1.17,2.01l19.03,10.85c.7.4,1.56.41,2.27.01l11.51-6.4c.36-.2.59-.59.59-1s-.22-.8-.58-1.01l-19.27-11.06c-.36-.2-.58-.59-.58-1v-6.94c0-.41.22-.8.58-1l5.99-3.46c.36-.21.8-.21,1.15,0l6,3.46c.36.2.58.59.58,1v5.45c0,.41.22.8.58,1,.36.2.8.2,1.16,0l11.49-6.67Z"/>
  <path class="cls-1" d="m178.37,86.32c.14-.08.31-.08.44,0l3.68,2.12c.14.08.22.23.22.38v4.25c0,.16-.08.3-.22.38l-3.68,2.12c-.14.08-.31.08-.44,0l-3.67-2.12c-.14-.08-.23-.23-.23-.38v-4.25c0-.16.08-.3.22-.38l3.68-2.12Z"/>
  <g class="cls-10">
    <path class="cls-5" d="m114.41,76.18l-53.67-26.31-27.52,56.14,53.67,26.31,27.52-56.14Z"/>
  </g>
  <g class="cls-9">
    <path class="cls-7" d="m29.73,83.96l37.9,51.29,50.12-37.03-37.9-51.29-50.12,37.03Z"/>
  </g>
  <g class="cls-8">
    <path class="cls-3" d="m53.67,66.75v48.57h41.45v-48.57h-41.45Z"/>
  </g>
</svg>