<?xml version="1.0" encoding="UTF-8"?>
<svg id="Capa_1" data-name="Capa 1" xmlns="http://www.w3.org/2000/svg" viewBox="0 0 300 208.6">
  <defs>
    <style>
      .cls-1, .cls-2 {
        stroke-width: 0px;
      }

      .cls-2 {
        fill: #fb3120;
      }
    </style>
  </defs>
  <path class="cls-2" d="m139.42,75.49c6.4-3.66,11.87-7.21,17.71-9.97,4.44-2.09,5.85-4.86,5.55-9.65-.45-7.06-.03-14.17-.16-21.25-.04-2.31.67-3.72,2.72-4.86,7.95-4.44,15.85-8.98,23.7-13.6,1.98-1.17,3.56-1.22,5.57-.03,7.84,4.64,15.74,9.16,23.68,13.64,1.74.98,2.63,2.09,2.61,4.21-.1,9.33.07,18.67-.15,28-.03,1.42-1.28,3.35-2.53,4.12-7.29,4.45-14.8,8.54-22.1,12.98-1.14.7-2.21,2.53-2.24,3.87-.21,8.32-.17,16.64-.07,24.96.02,2.25-.58,3.66-2.68,4.85-17.02,9.65-33.98,19.4-50.9,29.21-1.94,1.13-3.37,1.02-5.25-.07-16.74-9.68-33.52-19.29-50.34-28.84-2.42-1.37-3.41-3-3.39-5.88.11-29.24.09-58.48.02-87.72,0-2.42.7-3.84,2.91-5.06,7.88-4.33,15.66-8.84,23.4-13.43,1.97-1.17,3.57-1.38,5.6-.18,7.85,4.62,15.74,9.16,23.69,13.59,2.06,1.15,2.73,2.55,2.72,4.85-.08,17.21-.04,34.41-.04,51.62,0,1.22,0,2.44,0,4.63Zm-3.97,61.73c0-8.19-.08-15.8.05-23.41.04-2.11-.74-3.21-2.52-4.18-7.2-3.95-14.26-8.14-21.5-12-2.46-1.31-3.25-2.89-3.24-5.58.1-18.33.02-36.67.1-55,0-2.16-.54-3.49-2.51-4.56-5.82-3.17-11.53-6.54-17.3-9.81-.9-.51-1.87-.92-3.07-1.5-.11,1.09-.22,1.63-.22,2.17-.01,27.67-.04,55.34.08,83.01,0,1.2,1.17,2.87,2.26,3.51,14.75,8.62,29.59,17.11,44.41,25.61.93.53,1.92.97,3.44,1.74Zm3.99-.26c.99-.24,1.35-.25,1.62-.41,15.69-8.98,31.39-17.97,47.04-27.01.67-.39,1.46-1.29,1.47-1.96.1-8.06.07-16.12.07-24.4-.79.16-1.27.15-1.62.35-15.72,8.93-31.43,17.87-47.11,26.87-.66.38-1.39,1.33-1.4,2.02-.1,8.05-.06,16.11-.06,24.55Zm-3.99-116.11c-7.34,4.2-13.91,8.02-20.57,11.7-1.91,1.05-2.62,2.29-2.61,4.51.1,16.75.05,33.51.07,50.26,0,1.03.14,2.06.26,3.6,7.22-4.13,13.81-7.98,20.48-11.67,1.81-1,2.43-2.19,2.42-4.25-.09-14.73-.05-29.46-.05-44.19,0-3.02,0-6.05,0-9.96Zm-20.83,73.72c7.09,4.02,13.64,7.62,20.07,11.43,2,1.18,3.56,1.17,5.55.03,14.7-8.45,29.45-16.8,44.18-25.2.9-.51,1.69-1.2,2.84-2.03-7.39-4.23-14.26-8.25-21.25-12.06-.87-.47-2.57-.12-3.56.44-11.73,6.63-23.41,13.36-35.09,20.07-4.05,2.33-8.1,4.66-12.73,7.31Zm54.18-62.02c7.7,4.45,14.85,8.62,22.08,12.65.61.34,1.88-.14,2.67-.56,3.65-1.98,7.24-4.07,10.85-6.15,3.25-1.87,6.48-3.77,10.25-5.96-6.21-3.56-12.05-6.47-17.38-10.12-4.04-2.76-7.13-2.66-11.12.06-5.34,3.64-11.18,6.56-17.32,10.08Zm-35.42-15.31c-7.82-4.47-14.9-8.53-22.02-12.54-.48-.27-1.36-.36-1.81-.11-7.19,4.07-14.35,8.21-22.11,12.68,7.72,4.42,14.88,8.54,22.08,12.57.53.3,1.58.16,2.16-.17,7.01-3.96,13.97-7.99,21.69-12.42Zm60.3,58.23c6.23-3.54,11.52-6.94,17.15-9.64,4.62-2.21,6.77-5.03,6.06-10.34-.55-4.08-.11-8.29-.11-12.44,0-2.07,0-4.13,0-6.89-7.83,4.49-14.92,8.52-21.96,12.64-.56.33-1.09,1.25-1.1,1.91-.07,7.94-.05,15.88-.05,24.77Zm-4-.03c0-7.14-.4-13.44.12-19.66.42-5.01-1.42-7.72-5.79-9.85-5.79-2.83-11.27-6.28-17.45-9.79,0,8.78-.03,16.84.05,24.9,0,.63.64,1.48,1.23,1.83,6.96,4.07,13.97,8.06,21.84,12.58Z"/>
  <path class="cls-1" d="m86.26,207.15h-10.67c-.12-1.77-.22-3.39-.34-5.17-11.7,9.1-24.54,8.45-33.14-1.45-9-10.37-8.12-26.58,1.98-36.01,7.22-6.74,21.47-9.66,31.14.95.13-2.13.23-3.81.34-5.67h10.69v47.35Zm-39.15-23.57c.02,8.54,6.13,15.1,14.02,15.07,7.89-.03,14.11-6.6,14.22-15.02.11-8.41-6.32-15.24-14.34-15.24-7.86,0-13.93,6.63-13.9,15.19Z"/>
  <path class="cls-1" d="m177.2,207.15h-10.77c-.11-1.67-.2-3.19-.34-5.35-5.7,6.01-12.3,7.8-19.86,6.3-5.9-1.17-10.64-4.17-14.22-8.97-8.04-10.77-6.37-26.59,3.67-35.13,9.06-7.71,21.66-7.38,30.34,1.18.15-1.91.27-3.48.41-5.31h10.77v47.28Zm-39.03-23.55c.02,8.68,5.95,15.07,13.96,15.05,7.93-.02,14.07-6.56,14.1-15.04.04-8.64-6.17-15.27-14.26-15.23-7.96.04-13.83,6.51-13.8,15.22Z"/>
  <path class="cls-1" d="m244.7,187.75c.65,5.43,3.53,8.77,7.99,10.78,6.4,2.88,11.87,1.16,20.39-6.16,2.36,1.82,4.75,3.66,7.12,5.48-5.79,9.08-17.26,12.81-29.12,9.64-9.43-2.52-15.17-8.66-16.98-18.1-2.05-10.71.82-20.02,9.95-26.48,8.25-5.84,17.22-6.18,26.13-1.23,9.58,5.33,13.43,18.35,11.11,26.07h-36.58Zm.38-8.69h25.99c-.58-7.19-5.82-11.72-13.25-11.7-7.22.02-12.25,4.56-12.74,11.7Z"/>
  <path class="cls-1" d="m11.33,196.83h22.02v10.19H0v-71.13h11.33v60.94Z"/>
  <path class="cls-1" d="m183.09,159.63c3.47,0,6.63-.28,9.69.16,1.06.15,2.21,1.96,2.72,3.25,3.76,9.51,7.36,19.09,11.02,28.64.44,1.15.94,2.27,1.74,4.18.64-1.57,1.04-2.5,1.41-3.45,3.84-9.97,7.77-19.9,11.44-29.93.87-2.38,2.08-3.07,4.42-2.91,2.55.18,5.12.04,8.17.04-2.36,6.1-4.55,11.73-6.72,17.37-3.54,9.23-7.13,18.45-10.56,27.73-.75,2.02-1.76,2.79-3.92,2.66-3.7-.22-8.31,1.14-10.89-.6-2.54-1.71-3.1-6.42-4.43-9.85-4.42-11.43-8.8-22.87-13.19-34.31-.31-.81-.51-1.67-.9-2.97Z"/>
  <path class="cls-1" d="m289.21,135.89h10.79v71.18h-10.79v-71.18Z"/>
  <path class="cls-1" d="m125.59,159.86v10.64h-19.09v36.63h-11.03v-47.27h30.12Z"/>
</svg>