<?xml version="1.0" encoding="UTF-8"?>
<svg id="Capa_1" data-name="Capa 1" xmlns="http://www.w3.org/2000/svg" viewBox="0 0 200 200">
  <defs>
    <style>
      .cls-1 {
        fill: #fff;
        stroke-width: 0px;
      }
    </style>
  </defs>
  <path class="cls-1" d="m99.99,2.08C44.78,2.08,0,47.03,0,102.48c0,44.35,28.65,81.97,68.4,95.26,5,.93,6.83-2.17,6.83-4.84,0-2.39-.09-8.7-.14-17.08-27.81,6.06-33.69-13.46-33.69-13.46-4.54-11.6-11.1-14.69-11.1-14.69-9.09-6.23.67-6.1.67-6.1,10.04.71,15.31,10.35,15.31,10.35,8.92,15.34,23.41,10.91,29.11,8.34.9-6.49,3.49-10.91,6.35-13.43-22.2-2.54-45.55-11.15-45.55-49.61,0-10.96,3.9-19.92,10.3-26.95-1.04-2.54-4.46-12.75.98-26.56,0,0,8.4-2.7,27.5,10.29,7.98-2.22,16.53-3.34,25.04-3.37,8.49.05,17.05,1.15,25.04,3.39,19.09-12.99,27.47-10.29,27.47-10.29,5.45,13.82,2.02,24.02,1,26.56,6.41,7.02,10.27,15.99,10.27,26.95,0,38.56-23.37,47.05-45.65,49.54,3.59,3.1,6.79,9.22,6.79,18.59,0,13.43-.13,24.25-.13,27.54,0,2.69,1.8,5.81,6.88,4.82,39.69-13.3,68.31-50.91,68.31-95.25,0-55.45-44.77-100.4-100.01-100.4Z"/>
</svg>