<?xml version="1.0" encoding="UTF-8"?>
<svg id="Capa_1" data-name="Capa 1" xmlns="http://www.w3.org/2000/svg" viewBox="0 0 200 200">
  <defs>
    <style>
      .cls-1 {
        fill: #5ca4da;
      }

      .cls-1, .cls-2, .cls-3 {
        stroke-width: 0px;
      }

      .cls-2, .cls-3 {
        fill: #fff;
      }

      .cls-3 {
        fill-rule: evenodd;
      }
    </style>
  </defs>
  <rect class="cls-1" width="200" height="200" rx="25.43" ry="25.43"/>
  <g>
    <path class="cls-2" d="m117.86,99.84c0-9.56-8-17.32-17.86-17.32s-17.86,7.75-17.86,17.32,8,17.32,17.86,17.32,17.86-7.75,17.86-17.32Z"/>
    <path class="cls-3" d="m158,67.69c3.77-14.86,8.51-42.41-8.2-51.76-16.63-9.3-38.28,8.52-49.71,19.22-11.4-10.59-33.65-28.34-50.35-18.97-16.63,9.33-11.5,36.43-7.64,51.38C26.59,71.84,0,81.04,0,99.84s26.56,28.75,41.98,33.02c-3.87,15.04-8.74,41.75,7.91,51.06,16.76,9.37,38.94-7.95,50.48-18.77,11.5,10.76,32.94,28.2,49.58,18.86,16.69-9.37,12.34-36.55,8.49-51.59,14.95-4.28,41.56-14.07,41.56-32.58s-26.73-27.89-42-32.15Zm-1.89,56.76c-2.53-7.77-5.95-16.03-10.13-24.57,3.99-8.33,7.27-16.49,9.73-24.21,11.19,3.15,35.74,10.34,35.74,24.17s-23.56,21.22-35.35,24.61Zm-10.44,52.39c-12.41,6.97-30.85-9.71-39.35-17.63,5.64-5.98,11.27-12.92,16.76-20.64,9.67-.83,18.8-2.19,27.09-4.05,2.71,10.64,7.96,35.32-4.5,42.32Zm-91.51-.1c-12.41-6.94-6.74-30.78-3.89-41.85,8.19,1.76,17.26,3.02,26.95,3.78,5.53,7.55,11.33,14.49,17.17,20.57-7.22,6.77-27.75,24.48-40.23,17.5ZM8.54,99.84c0-14.01,24.4-21.15,35.85-24.29,2.5,7.89,5.79,16.15,9.75,24.49-4.01,8.47-7.34,16.85-9.87,24.84-10.91-3.03-35.73-11.02-35.73-25.04ZM54.02,23.36c12.47-7,31.81,10.04,40.08,17.71-5.81,6.05-11.55,12.94-17.04,20.44-9.41.85-18.41,2.2-26.69,4.02-3.11-12.06-8.81-35.19,3.64-42.17Zm75.17,47.16c6.38.78,12.5,1.82,18.24,3.09-1.72,5.36-3.87,10.96-6.4,16.7-3.67-6.75-7.6-13.36-11.83-19.79Zm-29.1-23.53c3.94,4.14,7.89,8.76,11.77,13.78-7.88-.36-15.76-.36-23.64,0,3.89-4.97,7.87-9.58,11.87-13.77Zm-41.05,43.31c-2.49-5.72-4.62-11.35-6.36-16.78,5.71-1.24,11.79-2.25,18.13-3.02-4.24,6.42-8.17,13.02-11.78,19.8Zm11.96,39.48c-6.55-.71-12.73-1.67-18.43-2.87,1.77-5.53,3.94-11.27,6.48-17.12,3.65,6.84,7.64,13.52,11.95,19.99Zm29.33,23.51c-4.05-4.24-8.09-8.92-12.03-13.96,7.92.3,15.86.3,23.77-.04-3.89,5.13-7.83,9.82-11.74,14Zm40.78-43.8c2.67,5.91,4.93,11.62,6.72,17.06-5.8,1.28-12.06,2.32-18.66,3.08,4.26-6.55,8.26-13.27,11.94-20.14Zm-22.8,21.15c-12.11.84-24.3.83-36.42.07-6.89-9.75-13.02-20.01-18.31-30.66,5.27-10.63,11.35-20.86,18.2-30.6,12.13-.89,24.33-.89,36.46,0,6.79,9.74,12.87,19.95,18.26,30.48-5.32,10.62-11.44,20.88-18.19,30.71Zm27.22-107.52c12.47,6.97,6.92,31.74,4.19,42.51-8.3-1.86-17.31-3.24-26.74-4.1-5.5-7.59-11.19-14.49-16.91-20.46,8.38-7.83,27.1-24.86,39.45-17.95Z"/>
  </g>
</svg>