<?xml version="1.0" encoding="UTF-8"?>
<svg id="Capa_1" data-name="Capa 1" xmlns="http://www.w3.org/2000/svg" viewBox="0 0 200 200">
  <defs>
    <style>
      .cls-1 {
        fill: #fff;
      }

      .cls-1, .cls-2 {
        stroke-width: 0px;
      }

      .cls-2 {
        fill: #f05133;
      }
    </style>
  </defs>
  <path class="cls-1" d="m63.65,30.82l8.91-8.91,20.03,4.54,82.41,70.08-5.39,32.09-40.3,25.93-25.93,12.84s-35.68-24.13-35.68-29.27-3.34-21.56-3.34-21.56l-6.42-32.86,5.71-52.88Z"/>
  <path class="cls-2" d="m196.23,91.09L108.9,3.78c-5.02-5.03-13.18-5.03-18.21,0l-18.13,18.13,23,23c5.35-1.81,11.48-.59,15.74,3.67,4.28,4.29,5.48,10.47,3.63,15.83l22.17,22.17c5.36-1.85,11.55-.65,15.83,3.64,5.99,5.99,5.99,15.68,0,21.67-5.99,5.99-15.69,5.99-21.68,0-4.5-4.51-5.62-11.12-3.34-16.67l-20.67-20.67v54.4c1.46.72,2.84,1.69,4.05,2.9,5.99,5.98,5.99,15.68,0,21.68-5.99,5.98-15.69,5.98-21.67,0-5.99-5.99-5.99-15.69,0-21.68,1.48-1.48,3.19-2.59,5.02-3.34v-54.91c-1.83-.75-3.54-1.86-5.02-3.34-4.53-4.53-5.63-11.19-3.3-16.75l-22.67-22.68L3.77,90.69c-5.03,5.03-5.03,13.19,0,18.22l87.32,87.32c5.03,5.03,13.18,5.03,18.22,0l86.92-86.9c5.03-5.03,5.03-13.19,0-18.22"/>
</svg>