<?xml version="1.0" encoding="UTF-8"?>
<svg id="Capa_1" data-name="Capa 1" xmlns="http://www.w3.org/2000/svg" viewBox="0 0 200 200">
  <defs>
    <style>
      .cls-1, .cls-2 {
        stroke-width: 0px;
      }

      .cls-2 {
        fill: #ffdf00;
      }
    </style>
  </defs>
  <path class="cls-2" d="m0,0h200v200H0V0Z"/>
  <path class="cls-1" d="m134.35,156.25c4.03,6.58,9.27,11.41,18.54,11.41,7.79,0,12.76-3.89,12.76-9.27,0-6.44-5.11-8.73-13.68-12.48l-4.7-2.02c-13.56-5.78-22.57-13.02-22.57-28.32,0-14.1,10.74-24.83,27.52-24.83,11.95,0,20.54,4.16,26.73,15.05l-14.63,9.4c-3.22-5.78-6.7-8.05-12.1-8.05s-8.99,3.49-8.99,8.05c0,5.64,3.49,7.92,11.56,11.41l4.7,2.01c15.97,6.85,24.98,13.83,24.98,29.52,0,16.92-13.29,26.19-31.14,26.19s-28.73-8.32-34.25-19.22l15.27-8.87Zm-66.39,1.63c2.95,5.24,5.64,9.67,12.1,9.67s10.07-2.42,10.07-11.81v-63.91h18.79v64.16c0,19.46-11.41,28.32-28.06,28.32-15.05,0-23.76-7.79-28.19-17.17l15.3-9.26Z"/>
</svg>