<?xml version="1.0" encoding="UTF-8"?>
<svg id="Capa_1" data-name="Capa 1" xmlns="http://www.w3.org/2000/svg" viewBox="0 0 194.7 234.68">
  <defs>
    <style>
      .cls-1 {
        stroke-width: 0px;
      }
    </style>
  </defs>
  <path class="cls-1" d="m95.66,0c42.76-.49,81.04,34.59,80.87,81.18-.17,44.74-36.29,80.87-81.51,80.65-46.02-.22-81.59-38.55-80.51-83.02C15.56,35.51,51.75-.59,95.66,0Zm-32.13,104.16c1.72.07,4.87-.52,7.84-1.9,9.59-4.45,13.49-15.09,6.6-24.22-.73-.97-1.43-1.96-2.22-2.87-1.81-2.09-3.69-4.11-5.49-6.21-1.96-2.28-2.89-4.88-1.73-7.82,1.19-3.02,3.4-4.92,6.72-5.19,4.49-.36,8.33,1.42,11.88,3.92,3.07,2.16,5.58,4.98,8.51,7.32.74.59.65,1.23.43,2-2.64,9.02-4.26,18.25-5.98,27.47-1.5,8.09-3.11,16.17-6.06,23.89-1.64,4.29-3.72,8.32-7.13,11.49-2.44,2.27-5.16,4.09-8.72,3.97-1.02-.03-1.79-.47-2.12-1.46-.31-.91.23-1.55.85-2.1.43-.38.92-.69,1.39-1.02.72-.51,1.29-1.15,1.56-2.01,1.22-3.92-1.6-8.05-5.7-8.36-3.58-.27-6.79,1.49-8.25,4.52-1.45,3.01-.86,7,1.47,9.52,2.27,2.45,5.17,3.6,8.44,3.83,9.93.69,17.52-4.01,24.04-10.81,7.71-8.04,12.36-17.79,15.37-28.42,2.29-8.1,3.64-16.39,5.13-24.65.23-1.27.66-1.83,2.04-1.6,1.94.34,3.91.26,5.86.14,4.78-.31,9.35-1.38,13.24-4.38,2.15-1.66,3.79-3.69,4.33-6.45.5-2.56-.81-5.5-2.89-6.51-1.9-.93-4.46-.25-6.07,1.61-1.44,1.68-1.45,3.16-.04,5.7,1.39,2.49,1.06,3.73-1.46,5.02-3.93,2.01-8.12,2.36-12.45,1.84-1.32-.16-1.63-.74-1.38-1.95.59-2.93,1.06-5.89,1.66-8.82,1.24-6.09,2.54-12.18,5.38-17.79,1.53-3.02,3.45-5.74,6.51-7.41,2.44-1.34,5.04-2,7.81-1.23,1.75.49,2.25,1.67,1.54,3.33-.32.74-.73,1.44-1.08,2.16-.57,1.17-.82,2.38-.49,3.68.62,2.49,2.41,4.04,5.01,4.28,3.2.29,5.48-.99,6.69-3.77,1.74-3.97.29-8.2-3.66-10.53-4.14-2.45-8.69-2.62-13.24-1.89-7.7,1.23-13.43,5.73-18.25,11.57-5.08,6.16-8.59,13.19-11.28,20.66-.63,1.75-.76,1.79-2.14.53-1.62-1.47-3.22-2.96-4.84-4.43-4.21-3.81-9.02-6.4-14.74-6.95-7.2-.69-13.39,1.53-17.92,7.25-4.93,6.23-4.4,14.71,1.1,21.49,2.06,2.54,4.43,4.84,6.59,7.31,2.52,2.87,2.67,6.56.27,9.48-4.18,5.1-11.32,3.81-14.64.52-1.07-1.06-1.15-2.35-.35-3.63.77-1.23,1.47-2.49,1.73-3.93.45-2.56-.08-4.89-2.15-6.54-1.86-1.48-4.14-1.57-6.23-.66-2.39,1.04-3.01,3.28-3.09,5.73-.15,4.57,2.01,7.96,5.51,10.57,4.35,3.24,9.34,4.61,16.29,4.72Z"/>
  <path class="cls-1" d="m57.48,198.58c1.69-2.02,3.69-3.14,6.12-3.49,3.59-.51,6.65.37,8.8,3.43.66.94.95.96,1.7.08,2.51-2.93,5.7-4.17,9.56-3.44,4.22.79,6.7,3.54,7.22,7.87.39,3.27.21,6.55.25,9.82.03,2.42.06,4.84-.03,7.25-.08,2.27-2.82,3.76-4.85,2.72-.86-.44-.66-1.27-.67-1.99-.04-5.12-.04-10.24-.08-15.36,0-.74-.11-1.5-.3-2.21-1.06-3.98-5.15-5.11-8.16-2.25-2.01,1.91-2.66,4.42-2.74,7.06-.11,3.79-.04,7.59-.07,11.39-.02,2.67-1.05,3.59-3.7,3.54-1.26-.02-1.7-.52-1.69-1.77.05-4.49,0-8.98.03-13.46,0-1.27-.1-2.52-.32-3.77-.43-2.5-1.58-4.06-3.31-4.39-2.44-.47-4.77.56-6.09,2.67-1.46,2.35-1.72,4.98-1.79,7.63-.08,3.34,0,6.67-.03,10.01-.02,2.4-2.38,3.88-4.63,2.97-.68-.28-.72-.83-.72-1.41,0-8.11,0-16.23,0-24.34,0-.71.04-1.45,1-1.51,1.46-.09,2.94-.19,3.82,1.34.25.43.38.93.66,1.63Z"/>
  <path class="cls-1" d="m125.44,223.43c-7.93,0-13.9-6.11-13.93-14.24-.03-8.19,5.88-14.25,13.9-14.27,8.21-.02,13.88,5.84,13.88,14.34,0,8.31-5.74,14.18-13.85,14.18Zm-8.02-14.28c-.05,2.72.54,5.13,2.24,7.18,3.18,3.85,9.21,3.61,12.05-.48,2.64-3.8,2.5-9.79-.32-13.45-2.89-3.75-8.26-3.96-11.44-.43-1.86,2.07-2.62,4.54-2.53,7.19Z"/>
  <path class="cls-1" d="m182.52,216.76c2.01-6.05,3.97-11.94,5.93-17.82.96-2.89,1.76-3.39,4.76-3.39,1.52,0,1.75.52,1.26,1.86-2.22,6.04-4.38,12.11-6.58,18.16-1.48,4.05-2.97,8.09-4.49,12.13-.49,1.29-1.21,2.48-2.06,3.58-2.16,2.77-5.95,4.03-9.31,3.11-.81-.22-1.15-.69-1.05-1.51.17-1.35.63-2.65,2.17-2.69,3.19-.07,4.68-2.06,5.78-4.63.5-1.17.5-2.25.04-3.48-3-8.08-5.94-16.2-8.88-24.3-.77-2.13-.72-2.19,1.56-2.21,3.09-.01,3.72.46,4.69,3.45,1.74,5.36,3.48,10.72,5.25,16.07.17.52.17,1.15.93,1.68Z"/>
  <path class="cls-1" d="m36.06,216.67c1.24-3.7,2.49-7.4,3.72-11.11.84-2.51,1.63-5.04,2.51-7.54.73-2.1,3.59-3.3,5.57-2.39.94.43.33,1.1.14,1.61-2.08,5.86-4.19,11.7-6.31,17.55-1.43,3.95-2.87,7.9-4.33,11.84-.64,1.74-1.48,3.37-2.66,4.82-2.12,2.62-6,3.85-9.23,2.93-.86-.25-.98-.76-.91-1.56.13-1.41.59-2.61,2.15-2.65,3.1-.08,4.59-1.98,5.68-4.52.56-1.3.51-2.48.01-3.82-2.99-8.04-5.9-16.1-8.83-24.16-.73-2.02-.66-2.09,1.53-2.1,3.09-.01,3.8.48,4.76,3.41,1.79,5.47,3.56,10.94,5.34,16.42.14.43.31.84.46,1.27.13,0,.25.01.38.02Z"/>
  <path class="cls-1" d="m12.44,183.81c1.5-.02,2.82.04,4.12.32,1.04.22,2.12.28,1.98,1.8-.15,1.57-1.2,2.67-2.68,2.54-1.32-.12-2.62-.36-3.95-.29-1.34.07-2.63.32-3.82.95-3,1.59-3.62,5.25-1.31,7.75.99,1.07,2.25,1.78,3.54,2.43,2.36,1.2,4.8,2.25,6.99,3.76,3.93,2.72,5.33,6.52,4.65,11.12-.68,4.63-3.59,7.33-7.96,8.53-3.98,1.1-7.95.97-11.91-.26-1.18-.37-1.84-.86-1.49-2.19.36-1.35.99-2.4,2.59-2.17,1.25.18,2.47.53,3.71.79,2.17.46,4.25.08,6.21-.88,4.3-2.12,4.84-7.4,1.1-10.37-1.36-1.08-2.91-1.85-4.48-2.57-1.99-.9-3.92-1.91-5.76-3.12-5.75-3.77-5.22-13.81,1.44-16.76,2.32-1.03,4.7-1.51,7.04-1.37Z"/>
  <path class="cls-1" d="m148.67,199.06c2.97-3.38,6.46-4.61,10.58-3.93,4.56.75,7.13,3.31,7.98,7.85.24,1.3.38,2.61.37,3.95-.03,4.32.02,8.63-.03,12.95-.03,2.41-2.45,3.9-4.67,2.99-.81-.33-.67-.99-.68-1.6-.02-3.34-.05-6.68,0-10.02.03-2.08-.09-4.14-.36-6.2-.31-2.37-1.03-4.63-3.68-5.32-2.7-.7-5.16-.05-7.03,2.14-1.51,1.78-2.17,3.94-2.22,6.23-.09,3.8-.05,7.6-.08,11.4-.01,1.55-.43,2.85-2.15,3.32-2.64.72-3.46.11-3.46-2.59,0-7.31-.03-14.62.03-21.93,0-1.03-.69-2.59,1.36-2.73,2.44-.17,3.64.57,3.95,2.55.04.22.04.45.08.94Z"/>
  <path class="cls-1" d="m98.95,211.56c0-3.22-.04-6.45.02-9.67.02-1.26-.4-1.79-1.68-1.74-.91.04-1.84-.04-2.74-.18-1.24-.2-1.85-1.08-2.05-2.26-.27-1.62.13-2.11,1.75-2.14,1.04-.02,2.08-.06,3.11,0,1.18.07,1.67-.36,1.63-1.58-.06-1.72-.08-3.44.34-5.15.94-3.82,3.44-5.92,7.36-6.07.92-.03,1.85-.05,2.76,0,.92.06,2.12-.22,2.16,1.3.03,1.38-.39,2.51-1.86,2.95-.27.08-.57.07-.86.09-3.23.24-4.45,1.44-4.52,4.65-.09,4.57-.32,3.7,3.52,3.79.4,0,.81-.05,1.21.01.81.12,1.95-.45,2.19,1,.28,1.64-.32,2.88-1.71,3.36-1.06.37-2.17.29-3.26.22-1.49-.1-2.03.44-2.01,1.97.07,5.81.02,11.63.03,17.44,0,1.28-.22,2.43-1.49,3.05-2.45,1.19-3.88.29-3.88-2.42,0-2.88,0-5.76,0-8.63Z"/>
</svg>