<?xml version="1.0" encoding="UTF-8"?>
<svg id="Capa_1" data-name="Capa 1" xmlns="http://www.w3.org/2000/svg" viewBox="0 0 200 200">
  <defs>
    <style>
      .cls-1 {
        fill: #fafafa;
      }

      .cls-1, .cls-2 {
        stroke-width: 0px;
      }

      .cls-2 {
        fill: #ff5722;
      }
    </style>
  </defs>
  <polygon class="cls-2" points="12.5 0 28.44 180 100 200 171.54 180.01 187.5 0 12.5 0"/>
  <polygon class="cls-1" points="152.94 59.55 100.01 59.55 69.07 59.55 71.07 82.16 100.01 82.16 150.94 82.16 144.93 149.96 100.01 162.5 99.97 162.51 55.07 149.96 51.93 114.5 73.93 114.5 75.57 132.9 99.98 139.54 100.01 139.53 100.01 139.53 124.44 132.89 126.99 104.25 100.01 104.25 100.01 104.25 51.03 104.25 45.11 37.49 100.01 37.49 154.89 37.49 152.94 59.55"/>
</svg>