<?xml version="1.0" encoding="UTF-8"?>
<svg id="fi_5968332" data-name="fi 5968332" xmlns="http://www.w3.org/2000/svg" xmlns:xlink="http://www.w3.org/1999/xlink" viewBox="0 0 300 157.81">
  <defs>
    <style>
      .cls-1, .cls-2, .cls-3, .cls-4, .cls-5 {
        stroke-width: 0px;
      }

      .cls-2 {
        fill: #777bb2;
      }

      .cls-3 {
        fill: none;
      }

      .cls-4 {
        fill: #fff;
      }

      .cls-5 {
        fill: url(#Degradado_sin_nombre_2);
      }
    </style>
    <radialGradient id="Degradado_sin_nombre_2" data-name="Degradado sin nombre 2" cx="-796.01" cy="344.99" fx="-796.01" fy="344.99" r=".43" gradientTransform="translate(452190.02 195970.16) scale(567.96 -567.96)" gradientUnits="userSpaceOnUse">
      <stop offset="0" stop-color="#adb1d4"/>
      <stop offset=".3" stop-color="#adb1d4"/>
      <stop offset=".75" stop-color="#484c88"/>
      <stop offset="1" stop-color="#484c88"/>
    </radialGradient>
  </defs>
  <g id="g3438">
    <g id="g3440">
      <path class="cls-3" d="m0,78.91c0,43.58,67.16,78.91,150,78.91s150-35.33,150-78.91S232.84,0,150,0C67.16,0,0,35.33,0,78.91"/>
      <g id="g3442">
        <g id="g3448">
          <g id="g3450">
            <path id="path3462" class="cls-5" d="m0,78.91c0,43.58,67.16,78.91,150,78.91s150-35.33,150-78.91S232.84,0,150,0C67.16,0,0,35.33,0,78.91"/>
          </g>
        </g>
      </g>
    </g>
    <g id="g3464">
      <g id="g3466">
        <g id="g3472">
          <path id="path3474" class="cls-2" d="m150,151.95c79.61,0,144.14-32.7,144.14-73.05S229.6,5.86,150,5.86,5.86,38.56,5.86,78.91s64.54,73.05,144.14,73.05"/>
        </g>
      </g>
    </g>
    <g id="g3476">
      <g id="g3478">
        <g id="g3484">
          <path id="path3486" class="cls-1" d="m81.5,87.96c6.55,0,11.43-1.21,14.52-3.59,3.06-2.36,5.17-6.44,6.28-12.13,1.03-5.32.64-9.04-1.17-11.04-1.85-2.05-5.84-3.09-11.88-3.09h-10.46l-5.8,29.84h8.5Zm-34.21,36.76c-.49,0-.95-.22-1.26-.59-.31-.37-.43-.87-.34-1.35l15.37-79.07c.15-.76.82-1.32,1.6-1.32h33.12c10.41,0,18.16,2.83,23.03,8.4,4.9,5.6,6.41,13.44,4.49,23.29-.78,4.01-2.12,7.74-3.98,11.07-1.87,3.34-4.33,6.43-7.33,9.19-3.59,3.36-7.65,5.8-12.06,7.23-4.34,1.41-9.92,2.13-16.57,2.13h-13.41l-3.83,19.71c-.15.76-.82,1.32-1.6,1.32h-17.23Z"/>
        </g>
        <g id="g3488">
          <path id="path3490" class="cls-4" d="m80.13,59.75h9.12c7.28,0,9.81,1.6,10.67,2.55,1.43,1.58,1.69,4.91.78,9.64-1.03,5.29-2.94,9.04-5.67,11.15-2.8,2.16-7.35,3.25-13.53,3.25h-6.53l5.17-26.58Zm15.64-18.99h-33.12c-1.56,0-2.9,1.1-3.2,2.63l-15.37,79.08c-.19.95.07,1.94.68,2.69.62.75,1.54,1.18,2.51,1.18h17.23c1.56,0,2.9-1.1,3.2-2.63l3.57-18.39h12.07c6.83,0,12.57-.74,17.08-2.21,4.63-1.51,8.9-4.06,12.67-7.59,3.12-2.87,5.69-6.09,7.64-9.58,1.95-3.49,3.35-7.38,4.16-11.56,2.02-10.36.38-18.66-4.87-24.67-5.19-5.94-13.35-8.96-24.25-8.96m-24.76,48.83h10.48c6.95,0,12.12-1.31,15.52-3.92,3.4-2.62,5.69-6.99,6.88-13.11,1.14-5.88.62-10.02-1.56-12.44-2.18-2.42-6.54-3.62-13.09-3.62h-11.8l-6.43,33.09Zm24.76-45.57c9.96,0,17.23,2.61,21.8,7.85,4.57,5.23,5.94,12.53,4.12,21.9-.75,3.86-2.02,7.39-3.81,10.59-1.79,3.2-4.12,6.13-7.01,8.78-3.44,3.22-7.26,5.51-11.47,6.88-4.2,1.37-9.56,2.05-16.07,2.05h-14.75l-4.09,21.02h-17.23l15.37-79.07h33.12Z"/>
        </g>
        <g id="g3492">
          <path id="path3494" class="cls-1" d="m162.79,103.7c-.49,0-.95-.22-1.26-.59-.31-.37-.43-.87-.34-1.35l6.8-34.99c.65-3.33.49-5.72-.45-6.72-.57-.62-2.29-1.65-7.38-1.65h-12.32l-8.55,43.98c-.15.76-.82,1.32-1.6,1.32h-17.09c-.49,0-.95-.22-1.26-.59-.31-.37-.43-.87-.34-1.35l15.37-79.08c.15-.76.82-1.32,1.6-1.32h17.09c.49,0,.95.22,1.26.59.31.38.43.87.34,1.35l-3.71,19.08h13.25c10.09,0,16.94,1.78,20.92,5.44,4.06,3.73,5.33,9.71,3.77,17.75l-7.15,36.8c-.15.76-.82,1.32-1.6,1.32h-17.36Z"/>
        </g>
        <g id="g3496">
          <path id="path3498" class="cls-4" d="m153.07,19.74h-17.09c-1.56,0-2.9,1.1-3.2,2.63l-15.37,79.08c-.19.95.07,1.94.68,2.69s1.54,1.18,2.51,1.18h17.09c1.56,0,2.9-1.1,3.2-2.63l8.29-42.67h10.97c5.08,0,6.15,1.09,6.19,1.13.31.33.71,1.87.04,5.31l-6.8,34.99c-.19.95.07,1.94.68,2.69s1.54,1.18,2.51,1.18h17.36c1.56,0,2.9-1.1,3.2-2.63l7.15-36.8c1.68-8.64.24-15.12-4.26-19.26-4.3-3.95-11.51-5.87-22.03-5.87h-11.28l3.33-17.15c.18-.95-.07-1.94-.68-2.69-.62-.75-1.54-1.18-2.51-1.18m0,3.26l-4.09,21.02h15.22c9.58,0,16.19,1.67,19.82,5.01,3.64,3.34,4.73,8.76,3.27,16.24l-7.15,36.8h-17.36l6.8-34.99c.77-3.98.49-6.7-.85-8.14-1.34-1.45-4.2-2.17-8.57-2.17h-13.66l-8.8,45.3h-17.09l15.37-79.07h17.09Z"/>
        </g>
        <g id="g3500">
          <path id="path3502" class="cls-1" d="m215.94,87.96c6.55,0,11.43-1.21,14.52-3.59,3.06-2.35,5.17-6.43,6.28-12.13,1.03-5.32.64-9.04-1.17-11.04-1.85-2.05-5.84-3.09-11.88-3.09h-10.46l-5.8,29.84h8.5Zm-34.21,36.76c-.49,0-.95-.22-1.26-.59-.31-.37-.43-.87-.34-1.35l15.37-79.08c.15-.76.82-1.32,1.6-1.32h33.12c10.41,0,18.16,2.83,23.03,8.4,4.9,5.6,6.41,13.44,4.49,23.29-.78,4.01-2.12,7.74-3.98,11.07-1.87,3.34-4.33,6.43-7.33,9.19-3.59,3.36-7.65,5.8-12.06,7.23-4.34,1.41-9.92,2.13-16.57,2.13h-13.41l-3.83,19.71c-.15.76-.82,1.32-1.6,1.32h-17.23Z"/>
        </g>
        <g id="g3504">
          <path id="path3506" class="cls-4" d="m214.58,59.75h9.12c7.28,0,9.81,1.6,10.67,2.55,1.43,1.58,1.7,4.91.78,9.64-1.03,5.29-2.94,9.04-5.67,11.15-2.8,2.16-7.35,3.25-13.53,3.25h-6.53l5.17-26.58Zm15.64-18.99h-33.12c-1.56,0-2.9,1.1-3.2,2.63l-15.37,79.08c-.19.95.07,1.94.68,2.69.62.75,1.54,1.18,2.51,1.18h17.23c1.56,0,2.9-1.1,3.2-2.63l3.57-18.39h12.07c6.83,0,12.57-.74,17.08-2.21,4.63-1.51,8.9-4.06,12.67-7.59,3.12-2.87,5.69-6.09,7.64-9.58,1.95-3.49,3.35-7.38,4.16-11.56,2.02-10.37.38-18.66-4.87-24.67-5.19-5.94-13.35-8.96-24.25-8.96m-24.76,48.83h10.48c6.95,0,12.12-1.31,15.52-3.92,3.4-2.62,5.69-6.99,6.88-13.11,1.14-5.88.62-10.02-1.56-12.44-2.18-2.42-6.54-3.62-13.09-3.62h-11.8l-6.43,33.09Zm24.76-45.57c9.96,0,17.23,2.61,21.8,7.85s5.94,12.53,4.12,21.9c-.75,3.86-2.02,7.39-3.81,10.59-1.79,3.2-4.12,6.13-7.01,8.78-3.44,3.22-7.26,5.51-11.47,6.88-4.2,1.37-9.56,2.05-16.07,2.05h-14.75l-4.09,21.02h-17.23l15.37-79.07h33.12Z"/>
        </g>
      </g>
    </g>
  </g>
</svg>